HIERARCHY
ROOT Hips
{
	OFFSET 0.000000 0.000000 0.000000 
	CHANNELS 6 Xposition Yposition Zposition Zrotation Yrotation Xrotation
	JOINT LeftUpLeg
	{
		OFFSET 1.363060 -1.794630 0.839290 
		CHANNELS 3 Zrotation Yrotation Xrotation
		JOINT LeftLeg
		{
			OFFSET 2.448110 -6.726130 0.000000 
			CHANNELS 3 Zrotation Yrotation Xrotation
			JOINT LeftFoot
			{
				OFFSET 2.562200 -7.039590 0.000000 
				CHANNELS 3 Zrotation Yrotation Xrotation
				JOINT LeftToeBase
				{
					OFFSET 0.157640 -0.433110 2.322550 
					CHANNELS 3 Zrotation Yrotation Xrotation
					End Site
					{
						OFFSET 0.000000 0.000000 0.000000 
					}
				}
			}
		}
	}
	JOINT RightUpLeg
	{
		OFFSET -1.305520 -1.794630 0.839290 
		CHANNELS 3 Zrotation Yrotation Xrotation
		JOINT RightLeg
		{
			OFFSET -2.542530 -6.985550 0.000000 
			CHANNELS 3 Zrotation Yrotation Xrotation
			JOINT RightFoot
			{
				OFFSET -2.568260 -7.056230 0.000000 
				CHANNELS 3 Zrotation Yrotation Xrotation
				JOINT RightToeBase
				{
					OFFSET -0.164730 -0.452590 2.363150 
					CHANNELS 3 Zrotation Yrotation Xrotation
					End Site
					{
						OFFSET 0.000000 0.000000 0.000000 
					}
				}
			}
		}
	}
	JOINT Spine
	{
		OFFSET 0.028270 2.035590 -0.193380 
		CHANNELS 3 Zrotation Yrotation Xrotation
		JOINT Spine1
		{
			OFFSET 0.056720 2.048850 -0.042750 
			CHANNELS 3 Zrotation Yrotation Xrotation
			JOINT Neck1
			{
				OFFSET -0.054170 1.746240 0.172020 
				CHANNELS 3 Zrotation Yrotation Xrotation
				JOINT Head
				{
					OFFSET 0.104070 1.761360 -0.123970 
					CHANNELS 3 Zrotation Yrotation Xrotation
					End Site
					{
						OFFSET 0.000000 0.000000 0.000000 
					}
				}
			}
			JOINT LeftArm
			{
				OFFSET 3.362410 1.200890 -0.311210 
				CHANNELS 3 Zrotation Yrotation Xrotation
				JOINT LeftForeArm
				{
					OFFSET 4.983000 -0.000000 -0.000000 
					CHANNELS 3 Zrotation Yrotation Xrotation
					JOINT LeftHand
					{
						OFFSET 3.483560 -0.000000 -0.000000 
						CHANNELS 3 Zrotation Yrotation Xrotation
						JOINT LeftHandIndex1
						{
							OFFSET 0.715260 -0.000000 -0.000000 
							CHANNELS 3 Zrotation Yrotation Xrotation
							End Site
							{
								OFFSET 0.000000 0.000000 0.000000 
							}
						}
					}
				}
			}
			JOINT RightArm
			{
				OFFSET -3.136600 1.374050 -0.404650 
				CHANNELS 3 Zrotation Yrotation Xrotation
				JOINT RightForeArm
				{
					OFFSET -5.241900 -0.000000 -0.000000 
					CHANNELS 3 Zrotation Yrotation Xrotation
					JOINT RightHand
					{
						OFFSET -3.444170 -0.000000 -0.000000 
						CHANNELS 3 Zrotation Yrotation Xrotation
						JOINT RightHandIndex1
						{
							OFFSET -0.622530 -0.000000 -0.000000 
							CHANNELS 3 Zrotation Yrotation Xrotation
							End Site
							{
								OFFSET 0.000000 0.000000 0.000000 
							}
						}
					}
				}
			}
		}
	}
}
MOTION
Frames: 10
Frame Time: 0.041667
13.141638 16.387432 -1.101365 56.787907 74.299195 56.131839 24.719662 6.505952 -43.738811 22.138910 18.665761 94.907467 0.131116 2.689302 -10.521513 2.016400 -8.900100 -25.483400 39.182491 -4.021085 12.260381 -1.024256 -10.074335 22.208212 -2.002795 -3.584408 -33.167104 -3.857700 -11.968700 35.621200 -0.967934 9.580865 1.008210 -9.165585 5.523393 1.705126 3.466238 -7.642115 12.925853 -1.825100 -2.701000 12.000700 -89.117926 29.226412 -9.965958 14.923720 -25.370626 -3.656322 -0.996748 0.121544 -16.115237 -7.125000 0.000000 0.000000 77.594012 8.360627 46.950192 -54.353459 57.415727 -25.413487 1.006111 -1.962238 -0.095448 7.125000 0.000000 0.000000 
13.427419 16.464824 -1.139448 54.938058 74.482279 55.314026 21.505586 8.920491 -47.978608 21.790944 18.650705 94.043953 0.073466 2.665690 -9.441346 2.233600 -9.336600 -26.854100 38.456667 -5.602454 13.358434 -0.804225 -9.237982 19.801232 -1.855562 -1.776433 -31.142504 -3.405700 -11.324500 33.382200 -1.098033 10.297420 0.925446 -9.654533 5.919820 1.815800 3.392477 -8.381932 13.296387 -1.907600 -2.961000 12.120600 -88.953725 31.598183 -11.033685 14.587462 -24.977421 -3.498661 -1.007586 0.137053 -13.847298 -7.125000 0.000000 0.000000 76.884353 8.909379 47.350637 -55.699332 57.869519 -26.383500 1.023045 -1.945208 -1.392550 7.125000 0.000000 0.000000 
13.719938 16.545076 -1.164259 53.391978 75.167391 54.654234 18.447146 10.473158 -51.930247 21.189313 18.661911 92.437529 0.083950 1.993297 -8.639242 2.678300 -10.155100 -29.480400 38.088036 -7.437453 14.447939 -0.603256 -8.425707 17.430899 -1.666183 -0.061545 -28.881897 -2.859200 -10.463600 30.491500 -1.190937 10.957289 0.866540 -10.152064 6.291533 2.025616 3.792112 -9.463818 13.566128 -1.673800 -3.365100 12.334500 -88.397578 33.843002 -10.961002 14.356651 -24.703652 -3.383451 -1.026743 0.124809 -12.538885 -7.125000 0.000000 0.000000 76.274263 9.312211 47.280224 -57.312921 58.374230 -27.559353 1.072998 -1.922523 -3.488560 7.125000 0.000000 0.000000 
14.021239 16.628390 -1.183046 52.333094 75.967829 54.493605 15.221581 11.325413 -55.648429 20.382602 18.700519 90.248956 0.058892 1.416350 -7.234244 2.960500 -10.630900 -31.044800 37.607456 -9.304917 15.425543 -0.463607 -7.654136 15.192081 -1.461844 2.146692 -26.267953 -2.477600 -9.797100 28.322000 -1.305782 11.576414 0.786382 -10.783549 6.655938 2.193124 4.231139 -10.456665 13.675425 -1.424600 -3.734000 12.400000 -87.173479 36.136653 -9.761116 14.036347 -24.302079 -3.225483 -1.057813 0.106394 -12.586330 -7.125000 0.000000 0.000000 75.880808 9.361733 46.947956 -59.578161 59.018001 -29.203017 1.171695 -1.886342 -6.599331 7.125000 0.000000 0.000000 
14.348677 16.716197 -1.208367 51.485929 76.394284 54.652553 11.513819 11.854779 -58.948100 19.315070 18.729010 87.317906 -0.000874 1.063432 -5.254797 2.898600 -10.529100 -30.707600 36.450466 -11.124111 16.248766 -0.422342 -7.032220 13.421623 -1.230918 4.953579 -23.287322 -2.235100 -9.339500 26.863100 -1.482126 12.246291 0.707884 -11.442574 7.063384 2.504552 4.422912 -11.315742 13.829935 -1.382900 -4.028600 12.462300 -85.884443 38.284849 -8.950462 13.693680 -23.882731 -3.063604 -1.083476 0.085010 -12.528874 -7.125000 0.000000 0.000000 75.629244 9.251766 46.568702 -62.330238 59.700920 -31.216157 1.298023 -1.830715 -10.529124 7.125000 0.000000 0.000000 
14.666620 16.800431 -1.221844 51.109029 76.676692 55.427421 7.544309 12.033634 -62.135900 18.096171 18.745635 83.963269 -0.081935 1.136399 -3.126586 2.545400 -9.919900 -28.717800 35.208202 -12.553656 16.641442 -0.455889 -6.693544 12.461954 -0.952774 7.628426 -20.157964 -1.839200 -8.522900 24.313800 -1.655706 12.875320 0.606374 -11.846022 7.423883 2.783842 4.517503 -12.178131 14.047933 -1.429400 -4.315500 12.647000 -84.954413 40.086369 -9.004352 13.296348 -23.378647 -2.886226 -1.100756 0.068373 -11.630910 -7.125000 0.000000 0.000000 75.357402 9.033843 46.242746 -65.509625 60.326630 -33.553127 1.452881 -1.741440 -14.498575 7.125000 0.000000 0.000000 
14.968226 16.869553 -1.211532 48.398059 76.757451 54.214917 3.715211 12.728295 -65.393163 16.843998 18.634989 80.448226 -0.163104 1.592740 -1.401889 2.107100 -9.085600 -26.063500 34.781149 -12.576487 16.547707 -0.550449 -6.677346 12.442399 -0.637836 9.911214 -16.945925 -1.342800 -7.336700 20.716900 -1.817466 13.816205 0.442929 -11.979002 7.878596 2.836191 4.914511 -12.868256 13.913611 -1.223700 -4.588200 12.569400 -83.847905 42.169210 -8.166968 13.014878 -23.059717 -2.762353 -1.123439 0.050522 -11.179542 -7.125000 0.000000 0.000000 75.043173 8.507537 45.965829 -69.124781 60.832642 -36.207720 1.607161 -1.632253 -17.797844 7.125000 0.000000 0.000000 
15.287803 16.946435 -1.202751 48.985451 77.280118 55.616402 -0.306895 12.336966 -67.675014 15.386204 18.557787 76.372914 -0.268134 2.575952 0.134027 1.553700 -7.867000 -22.310800 34.412817 -12.708452 16.996917 -0.623900 -6.744723 12.653462 -0.335951 11.439511 -13.821941 -1.001700 -6.368900 17.858500 -1.916286 14.363424 0.368814 -12.127960 8.170357 2.952568 5.090075 -13.379359 13.714623 -1.169400 -4.805400 12.450100 -82.601549 44.366860 -6.454236 12.904023 -22.991665 -2.708753 -1.147856 0.030677 -11.175539 -7.125000 0.000000 0.000000 74.599352 7.835650 45.680477 -72.902736 61.124191 -38.996130 1.700433 -1.560301 -20.230946 7.125000 0.000000 0.000000 
15.616262 17.012290 -1.194685 49.204360 77.926837 56.538145 -4.269842 12.021055 -69.447546 13.826975 18.327529 71.979961 -0.147943 0.866476 4.579345 1.031700 -6.460900 -18.127600 34.562235 -12.306423 17.445289 -0.720717 -7.062972 13.580074 -0.067039 12.495143 -10.751896 -0.862400 -5.921800 16.557800 -1.939873 14.891522 0.363198 -11.923151 8.431776 3.296482 5.479254 -13.982967 13.644141 -0.950800 -5.055000 12.525800 -81.780906 46.331724 -5.178647 12.800321 -22.954998 -2.659305 -1.173870 0.023202 -10.867101 -7.125000 0.000000 0.000000 74.015471 7.102095 45.472867 -76.888306 61.205960 -42.000244 1.805117 -1.460850 -21.865696 7.125000 0.000000 0.000000 
15.953094 17.069059 -1.187742 49.662286 78.781906 57.396429 -8.288043 11.756445 -70.514402 12.185264 17.973455 67.273962 -0.008817 -0.378475 8.352908 0.796100 -5.695000 -15.902000 35.072158 -11.754722 17.988485 -0.831587 -7.689322 15.375752 0.066873 12.522594 -8.560357 -0.869400 -5.945000 16.624900 -1.904723 15.323975 0.370279 -11.720055 8.649282 3.610009 5.488302 -14.413835 13.594084 -0.950900 -5.263300 12.511300 -81.187438 48.359698 -4.270619 12.716797 -22.970206 -2.616265 -1.205379 0.026009 -10.475383 -7.125000 0.000000 0.000000 73.590228 6.054084 45.422072 -81.122087 61.062436 -45.290912 1.887005 -1.383346 -22.441696 7.125000 0.000000 0.000000 
